<?xml version="1.0" standalone="no"?>
<!DOCTYPE svg PUBLIC "-//W3C//DTD SVG 20010904//EN"
 "http://www.w3.org/TR/2001/REC-SVG-20010904/DTD/svg10.dtd">
<svg version="1.0" xmlns="http://www.w3.org/2000/svg"
 width="741.000000pt" height="233.000000pt" viewBox="0 0 741.000000 233.000000"
 preserveAspectRatio="xMidYMid meet">

<g transform="translate(0.000000,233.000000) scale(0.100000,-0.100000)"
fill="#000000" stroke="none">
<path d="M704 2151 c-44 -20 -131 -112 -140 -148 -10 -38 2 -53 41 -53 28 0
37 5 45 24 10 27 52 41 80 26 23 -12 40 -41 40 -68 0 -21 -72 -92 -166 -164
-86 -66 -162 -152 -169 -192 -6 -31 -10 -34 -55 -39 -114 -14 -199 -77 -247
-186 -22 -50 -25 -66 -21 -151 5 -114 24 -157 95 -220 68 -59 83 -65 218 -85
109 -16 127 -16 190 -3 39 8 78 18 88 23 16 7 16 3 -5 -39 -12 -25 -28 -46
-34 -46 -7 0 -21 -13 -30 -29 -22 -37 -124 -113 -196 -146 -29 -13 -81 -31
-116 -40 -57 -15 -67 -15 -116 -1 -69 20 -95 20 -103 0 -8 -23 66 -86 154
-130 68 -35 76 -36 146 -32 61 4 86 11 140 41 l65 35 6 -38 c24 -151 148 -270
282 -270 68 0 118 21 188 82 98 85 123 202 65 316 -32 66 -118 152 -150 152
-10 0 -19 5 -19 11 0 7 31 53 68 103 38 50 75 101 84 113 18 28 28 20 28 -23
0 -76 57 -181 173 -318 76 -88 78 -105 26 -208 -38 -75 -42 -92 -47 -173 -4
-87 -3 -92 29 -154 27 -51 43 -69 78 -88 58 -30 117 -30 154 1 39 32 35 70 -8
74 -36 4 -55 26 -55 64 0 46 24 92 99 185 43 53 77 107 87 137 36 109 -10 249
-121 366 -97 102 -120 144 -62 113 23 -12 69 -19 162 -24 123 -6 244 -27 285
-49 44 -24 37 -67 -31 -198 -41 -77 -49 -102 -49 -145 0 -29 5 -58 12 -65 21
-21 56 -14 72 16 8 15 22 41 31 59 9 17 52 71 96 119 97 105 110 130 117 210
4 51 0 71 -18 109 -43 88 -83 117 -193 140 -27 5 -27 6 -21 69 5 45 2 79 -10
122 -19 65 -74 154 -112 178 -31 21 -56 70 -52 104 3 22 10 28 45 35 79 15
120 99 71 144 -63 57 -133 67 -214 29 -85 -40 -120 -105 -111 -207 6 -72 30
-123 102 -219 30 -41 55 -80 55 -87 0 -19 -44 -37 -75 -29 -35 9 -62 38 -74
82 -5 20 -32 71 -59 113 -27 42 -61 97 -75 122 -15 26 -51 69 -82 97 -106 97
-248 116 -374 50 -67 -35 -105 -70 -174 -160 -28 -38 -54 -68 -57 -68 -3 0
-14 6 -24 13 -16 12 -17 18 -7 49 6 19 39 75 73 124 109 160 132 263 81 365
-47 92 -113 119 -199 80z m118 -68 c16 -15 48 -93 48 -119 0 -33 -47 -133 -95
-203 -76 -111 -95 -153 -95 -209 0 -60 21 -82 82 -89 47 -6 47 -6 176 145 85
101 218 138 322 91 59 -26 135 -101 167 -164 14 -27 42 -75 63 -105 20 -30 43
-73 50 -95 19 -60 37 -82 84 -105 70 -34 143 -21 180 32 28 39 19 72 -39 155
-100 141 -127 226 -92 292 28 55 109 85 167 61 45 -19 37 -37 -25 -54 -116
-34 -116 -130 -1 -251 64 -66 96 -139 96 -216 0 -65 -18 -105 -71 -156 -130
-125 -312 -101 -390 50 -15 28 -25 37 -45 37 -24 0 -26 -3 -21 -37 11 -78 36
-183 52 -213 9 -17 46 -64 83 -104 76 -82 109 -142 122 -218 11 -70 -7 -110
-104 -233 -62 -79 -77 -105 -87 -152 -8 -40 -9 -69 -2 -95 9 -34 9 -36 -8 -27
-36 19 -63 89 -63 160 0 58 6 78 42 152 68 138 60 184 -53 310 -58 63 -112
147 -131 199 -14 39 -17 105 -11 218 2 29 -2 36 -20 38 -17 3 -26 -4 -34 -25
-5 -15 -21 -39 -34 -53 -62 -67 -230 -303 -261 -368 -61 -125 -69 -248 -19
-298 54 -54 165 -11 165 64 0 39 -40 87 -86 104 -37 13 -37 16 -8 85 12 30 15
32 42 22 38 -13 98 -73 123 -121 24 -46 24 -121 1 -170 -34 -73 -152 -146
-216 -134 -66 12 -127 64 -165 139 -31 61 -35 76 -34 140 3 126 78 314 194
486 35 52 79 117 97 144 36 54 38 80 6 85 -15 2 -30 -11 -57 -50 -143 -209
-143 -210 -212 -240 -96 -42 -160 -50 -261 -33 -46 8 -88 14 -93 13 -5 -2 -36
16 -69 39 -80 56 -107 110 -106 208 1 41 8 86 18 107 24 55 75 109 124 130 57
26 146 28 169 5 16 -16 15 -17 -25 -17 -151 0 -216 -189 -104 -301 113 -112
374 -37 360 104 -2 25 -8 33 -26 35 -13 2 -32 -4 -42 -13 -31 -28 -100 -31
-132 -6 -26 21 -44 71 -36 105 3 15 7 14 43 -4 21 -11 47 -18 56 -15 43 14 20
102 -40 156 -23 20 -41 44 -41 54 0 23 98 124 202 207 98 77 128 118 128 172
0 66 -32 108 -97 131 l-38 13 35 16 c37 16 65 13 92 -11z m-402 -753 c0 -82
63 -150 138 -150 37 0 43 -2 33 -12 -7 -8 -39 -13 -82 -13 -69 0 -71 1 -105
37 -38 43 -45 88 -19 138 20 39 35 38 35 0z m1637 -265 c44 -19 88 -96 87
-155 -1 -56 -18 -88 -89 -165 l-56 -60 21 47 c27 63 36 130 20 168 -14 34 -59
65 -110 75 -72 14 -71 12 -21 65 42 45 49 48 81 43 19 -3 49 -11 67 -18z
m-1437 -403 c0 -20 -12 -39 -40 -65 -79 -73 -167 -100 -250 -77 -50 14 -51 12
50 45 70 23 157 67 195 99 39 32 45 32 45 -2z m311 -132 c10 -6 19 -20 19 -31
0 -16 -5 -20 -27 -17 -22 2 -29 9 -31 31 -4 29 7 34 39 17z"/>
<path d="M912 1483 c-29 -43 -33 -63 -21 -100 23 -72 118 -73 155 -2 31 60
-13 129 -82 129 -24 0 -37 -7 -52 -27z m76 -61 c4 -26 -26 -42 -38 -21 -11 16
7 52 23 46 7 -2 13 -13 15 -25z"/>
<path d="M1264 1467 c-21 -19 -27 -32 -27 -66 0 -50 22 -77 70 -87 27 -5 37
-1 63 24 42 42 42 90 -1 126 -38 32 -70 33 -105 3z m71 -67 c0 -8 -8 -16 -17
-18 -13 -2 -18 3 -18 18 0 15 5 20 18 18 9 -2 17 -10 17 -18z"/>
<path d="M5992 1381 c-12 -12 -13 -33 -8 -105 8 -109 23 -350 32 -496 4 -58
12 -114 19 -126 16 -26 105 -38 161 -23 l36 10 -7 137 c-3 75 -10 200 -16 277
-5 77 -9 174 -9 216 0 106 -10 116 -114 121 -60 3 -83 0 -94 -11z"/>
<path d="M5400 1383 c-14 -2 -32 -14 -42 -27 -15 -20 -15 -50 -7 -322 12 -411
10 -404 117 -404 99 0 104 7 112 126 7 104 13 128 38 157 21 24 44 21 75 -11
24 -25 27 -38 33 -127 4 -55 11 -108 16 -117 7 -15 22 -18 83 -18 104 0 105 1
105 163 0 212 -37 308 -129 336 -46 13 -102 14 -156 1 -22 -5 -41 -8 -43 -6
-1 2 -6 53 -11 114 -4 65 -13 117 -21 126 -12 16 -102 20 -170 9z"/>
<path d="M3020 1360 c-20 -20 -24 -37 -21 -95 4 -68 97 -100 146 -50 45 44 28
117 -35 150 -39 20 -66 19 -90 -5z"/>
<path d="M3806 1320 c-54 -10 -78 -41 -72 -94 3 -23 5 -44 5 -48 1 -4 8 -14
17 -23 13 -13 34 -16 98 -14 l81 2 -4 -245 c-4 -295 -9 -284 108 -274 114 11
127 23 111 106 -8 41 -23 399 -17 400 115 20 163 32 175 44 22 21 27 106 9
131 -14 19 -28 20 -244 21 -125 1 -246 -2 -267 -6z"/>
<path d="M2501 1294 c-61 -31 -127 -107 -137 -160 -10 -54 1 -133 23 -162 34
-45 66 -62 145 -76 99 -17 161 -54 156 -94 -2 -21 -9 -28 -30 -30 -29 -4 -97
28 -142 65 -21 18 -38 23 -65 21 -31 -3 -41 -10 -68 -52 -37 -54 -43 -104 -15
-129 51 -46 271 -96 341 -77 54 14 131 68 155 108 10 19 23 55 28 80 7 40 5
54 -17 97 -38 79 -70 103 -186 139 l-104 32 -3 37 c-3 31 1 39 22 48 35 16 73
3 91 -31 18 -35 40 -38 124 -15 81 21 89 34 65 92 -22 54 -83 106 -142 123
-20 5 -71 10 -113 10 -61 0 -85 -5 -128 -26z"/>
<path d="M6995 1193 c-36 -9 -122 -81 -138 -116 -10 -19 -17 -58 -17 -87 0
-47 4 -55 43 -96 37 -39 50 -46 117 -59 81 -17 96 -25 87 -49 -8 -20 -44 -20
-77 -1 -40 23 -104 19 -137 -9 -22 -19 -28 -32 -28 -66 0 -77 57 -100 244
-101 134 -1 163 8 206 65 35 46 46 89 36 142 -12 66 -40 90 -125 108 -77 18
-116 38 -116 62 0 17 0 17 43 -1 86 -36 157 -9 157 59 0 28 -9 42 -50 79 -71
64 -162 90 -245 70z"/>
<path d="M4987 1156 c-20 -8 -45 -20 -55 -27 -100 -76 -131 -148 -117 -274 9
-87 62 -170 132 -205 69 -35 203 -41 261 -11 46 23 72 64 72 110 0 50 -24 64
-97 58 -56 -4 -65 -2 -78 16 -20 28 -20 107 -1 107 7 0 30 -7 49 -15 72 -30
138 -7 152 53 17 79 -69 164 -193 191 -66 14 -78 13 -125 -3z"/>
<path d="M6470 1161 c-75 -23 -127 -67 -162 -135 -16 -30 -20 -58 -19 -128 0
-141 35 -215 122 -263 40 -21 69 -28 134 -32 77 -5 86 -4 135 23 91 49 115
109 65 159 -28 29 -49 31 -98 10 -38 -16 -114 -20 -133 -7 -10 6 -34 45 -34
55 0 2 50 7 111 10 163 8 188 33 155 157 -20 78 -40 107 -92 137 -41 24 -130
30 -184 14z m92 -168 c30 -27 22 -41 -27 -49 -25 -3 -49 -4 -52 -1 -11 11 7
56 25 60 30 8 35 7 54 -10z"/>
<path d="M4435 1139 c-54 -16 -128 -81 -155 -134 -48 -98 -26 -237 50 -313 54
-54 99 -72 185 -72 121 0 185 38 185 108 0 61 -24 76 -109 68 -62 -6 -72 -5
-90 13 -35 35 -27 44 31 38 63 -8 176 10 201 31 14 12 16 25 11 66 -12 113
-48 162 -143 194 -39 14 -122 14 -166 1z m105 -174 c17 -20 4 -35 -31 -35 -30
0 -38 17 -17 38 16 16 33 15 48 -3z"/>
<path d="M3592 1131 c-40 -7 -58 -21 -83 -64 -10 -17 -14 -15 -46 22 l-35 41
-66 -6 c-37 -4 -75 -11 -84 -16 -29 -15 -21 -50 27 -107 76 -94 76 -96 6 -201
-89 -133 -83 -170 26 -170 l63 0 47 60 46 60 58 -62 57 -61 73 6 c40 3 76 10
82 16 17 17 -2 55 -77 150 -56 70 -73 99 -66 110 4 9 31 47 59 84 27 38 53 78
57 89 13 43 -51 65 -144 49z"/>
<path d="M2996 1095 c-11 -12 -14 -32 -11 -83 3 -37 7 -134 10 -216 6 -188 12
-200 92 -194 66 6 87 26 78 74 -3 18 -6 114 -6 215 -1 101 -5 192 -10 202 -13
23 -130 25 -153 2z"/>
</g>
</svg>
