<?xml version="1.0" standalone="no"?>
<!DOCTYPE svg PUBLIC "-//W3C//DTD SVG 20010904//EN"
 "http://www.w3.org/TR/2001/REC-SVG-20010904/DTD/svg10.dtd">
<svg version="1.0" xmlns="http://www.w3.org/2000/svg"
 width="500.000000pt" height="500.000000pt" viewBox="0 0 500.000000 500.000000"
 preserveAspectRatio="xMidYMid meet">

<g transform="translate(0.000000,500.000000) scale(0.100000,-0.100000)"
fill="#000000" stroke="none">
<path d="M1335 3596 c-79 -21 -107 -35 -148 -74 -98 -94 -114 -241 -39 -360 8
-12 12 -25 9 -28 -3 -4 -68 -9 -144 -13 l-138 -6 0 -795 0 -795 478 0 477 0 0
-37 0 -38 -57 -1 c-56 0 -117 -15 -83 -20 30 -4 465 3 473 8 23 14 -14 24 -81
21 l-77 -3 0 35 0 35 429 3 c297 1 432 6 437 13 3 6 7 153 8 327 1 174 4 318
6 320 11 11 133 -23 159 -45 24 -20 36 -23 60 -18 28 7 179 9 250 4 21 -1 36
6 50 23 28 34 64 52 79 39 7 -5 55 -17 107 -26 52 -9 113 -20 135 -25 60 -12
209 5 303 35 91 29 177 74 171 90 -2 6 -42 9 -99 7 -112 -4 -167 6 -275 47
-118 46 -116 44 -73 88 52 55 134 168 170 236 23 42 40 62 65 72 18 8 38 24
44 37 21 48 118 95 216 105 40 4 61 1 97 -17 39 -18 46 -26 46 -51 0 -18 7
-32 20 -39 24 -13 25 -31 5 -70 -18 -36 -27 -37 -40 -8 -21 46 -60 63 -144 62
-88 -2 -121 -17 -141 -64 -24 -57 32 -143 110 -169 63 -21 179 -24 253 -7 95
22 137 51 192 132 20 29 25 49 25 98 0 68 -17 143 -45 196 -31 61 -144 163
-220 201 -67 33 -73 34 -190 34 -119 0 -121 0 -212 -41 l-93 -42 -45 68 c-60
90 -121 144 -213 188 l-77 37 -170 0 c-161 0 -174 -1 -245 -28 -94 -35 -191
-92 -253 -150 l-49 -45 -446 -4 -447 -3 -3 49 c-7 95 -74 222 -153 290 -60 51
-185 112 -253 125 -76 14 -158 13 -221 -3z m273 -35 c93 -29 195 -101 251
-177 90 -123 96 -185 41 -399 -22 -88 -43 -192 -47 -232 -6 -72 -6 -72 28
-106 l35 -35 -1 -101 c0 -97 -1 -101 -22 -101 -12 0 -25 4 -28 10 -3 5 -35 18
-70 29 -82 26 -114 42 -146 78 -39 41 -49 66 -49 118 0 52 15 86 72 163 22 29
56 85 76 125 32 64 37 82 40 164 4 88 3 95 -29 159 -65 129 -260 264 -381 264
-70 0 -132 -33 -172 -90 -26 -38 -31 -54 -30 -105 0 -64 27 -132 62 -157 37
-27 35 -38 -7 -38 -40 0 -40 0 -77 75 -34 68 -36 80 -31 135 11 123 98 209
242 240 55 12 174 3 243 -19z m-186 -97 c-4 -43 21 -63 48 -39 11 10 17 22 14
26 -7 12 7 11 44 -2 30 -10 32 -13 26 -48 -4 -27 -2 -40 10 -50 14 -12 20 -11
41 9 l25 24 31 -30 c48 -46 55 -63 29 -81 -15 -11 -20 -23 -18 -46 4 -41 33
-49 49 -13 16 35 24 33 37 -13 15 -47 16 -149 2 -113 -17 41 -85 17 -78 -28 2
-18 11 -26 36 -31 18 -4 36 -9 39 -12 5 -6 -31 -91 -50 -114 -7 -10 -14 -7
-27 10 -18 22 -18 22 -39 2 -27 -23 -23 -57 6 -65 22 -5 22 -6 -14 -59 -29
-44 -38 -50 -45 -37 -19 33 -68 12 -68 -30 0 -27 22 -46 45 -38 14 6 16 2 13
-22 -2 -21 -9 -30 -24 -32 -25 -4 -33 -25 -24 -62 5 -20 12 -25 39 -25 21 0
36 -6 43 -18 5 -10 8 -19 6 -20 -47 -25 -59 -47 -38 -72 20 -24 49 -18 62 13
7 15 13 28 14 30 0 1 25 -9 55 -23 30 -14 63 -25 74 -25 11 -1 -10 -9 -48 -19
-37 -10 -88 -32 -113 -50 -28 -19 -53 -30 -62 -26 -10 4 -13 9 -6 13 19 13 23
40 8 61 -21 30 -67 52 -84 41 -11 -7 -18 -3 -27 13 -17 30 -16 47 2 47 20 0
37 35 33 73 -3 29 -6 32 -36 32 -33 0 -34 1 -28 34 3 18 15 40 26 48 25 18 43
56 44 98 1 25 6 31 28 33 36 4 50 24 53 74 2 34 9 47 38 71 36 28 36 29 30 86
-4 39 -2 61 6 65 20 13 11 57 -19 95 -17 21 -34 51 -39 67 -5 19 -15 31 -32
34 -37 8 -106 47 -112 65 -7 16 -37 20 -52 6 -6 -5 -27 -12 -47 -15 -40 -7
-60 8 -35 27 9 7 19 24 23 40 6 25 4 27 -22 28 l-29 1 30 14 c17 7 48 13 70
11 38 -2 40 -3 37 -33z m-146 -36 c-1 -21 -10 -41 -23 -53 -25 -22 -23 -65 3
-65 21 0 17 -28 -6 -35 -11 -3 -20 -14 -20 -24 0 -20 27 -48 37 -38 3 4 14 2
24 -4 20 -10 28 -79 9 -79 -5 0 -10 6 -10 13 0 6 -17 28 -39 48 -68 65 -77
163 -19 233 36 44 45 45 44 4z m30 -5 c-10 -10 -19 5 -10 18 6 11 8 11 12 0 2
-7 1 -15 -2 -18z m284 -43 c0 -5 -4 -10 -10 -10 -5 0 -10 5 -10 10 0 6 5 10
10 10 6 0 10 -4 10 -10z m-316 -41 c-3 -5 -10 -7 -15 -3 -5 3 -7 10 -3 15 3 5
10 7 15 3 5 -3 7 -10 3 -15z m127 5 c8 -10 21 -13 36 -9 29 7 83 -22 83 -45 0
-28 30 -60 56 -60 24 0 25 -3 22 -47 l-3 -48 -46 -3 c-45 -3 -47 -2 -65 35
-26 52 -64 69 -115 53 -35 -12 -41 -11 -59 5 -23 21 -25 39 -9 83 15 44 75 66
100 36z m2245 -39 c56 -25 93 -51 132 -91 29 -31 51 -58 49 -60 -2 -3 -17 2
-32 10 -45 24 -84 -10 -57 -50 11 -16 48 -34 71 -34 17 0 21 6 21 31 0 24 3
29 13 21 25 -21 80 -144 85 -190 4 -47 4 -48 -24 -47 -23 0 -30 -5 -32 -24 -4
-27 12 -41 47 -41 23 0 24 -2 17 -56 -3 -30 -13 -71 -20 -89 -13 -31 -17 -34
-49 -28 -24 3 -38 0 -50 -12 -24 -23 -22 -66 3 -72 26 -7 25 -13 -9 -60 -40
-55 -142 -162 -135 -140 3 9 10 17 15 17 5 0 9 11 9 25 0 21 -5 25 -30 25 -36
0 -83 -41 -78 -68 3 -12 13 -17 36 -16 19 1 29 -2 26 -8 -12 -19 -127 -98
-172 -118 -39 -17 -46 -18 -56 -6 -31 40 -118 14 -132 -39 -6 -23 -11 -25 -62
-25 -49 0 -59 3 -78 27 -16 21 -29 26 -59 25 -20 -1 -43 -6 -51 -12 -8 -7 -30
-9 -59 -4 -35 5 -50 13 -63 33 -32 50 -39 54 -78 41 -19 -7 -38 -18 -41 -26
-4 -10 -22 -13 -77 -10 -39 2 -83 7 -99 11 -21 6 -35 2 -61 -18 -34 -26 -34
-27 -29 -91 4 -47 2 -70 -8 -82 -11 -14 -10 -19 10 -35 13 -11 29 -19 37 -19
7 0 29 -11 48 -23 19 -13 56 -29 83 -36 26 -7 58 -17 71 -22 13 -5 37 -9 53
-9 42 0 32 -24 -12 -30 -28 -4 -35 -10 -37 -33 -3 -24 -7 -26 -30 -21 -85 18
-111 35 -77 48 21 8 19 40 -5 61 -14 13 -28 16 -55 11 -40 -8 -42 -12 -18 -38
42 -47 -28 -27 -108 32 -158 114 -174 271 -34 331 57 25 152 49 160 41 3 -3 5
-13 5 -23 0 -22 32 -33 76 -24 38 7 42 19 17 47 -16 17 -9 18 178 18 186 0
405 18 478 40 41 12 46 9 30 -18 -11 -18 -10 -24 5 -41 23 -25 58 -27 92 -5
43 29 48 51 20 79 l-25 25 47 25 c26 13 67 38 92 54 37 25 46 28 53 16 11 -20
36 -19 59 2 22 20 24 63 3 63 -20 0 -20 2 16 66 17 30 37 74 44 97 13 40 14
41 14 11 1 -42 29 -54 53 -24 37 45 11 99 -33 71 -18 -10 -19 -8 -19 36 0 27
-3 58 -6 71 -5 18 -2 22 15 22 22 0 38 37 27 65 -8 23 -51 19 -63 -6 -9 -21
-11 -20 -40 20 -16 22 -51 57 -77 77 -44 33 -46 37 -32 53 9 10 16 25 16 34 0
25 -44 49 -82 45 -30 -3 -33 -6 -30 -32 3 -26 1 -28 -20 -22 -13 4 -58 12
-101 18 l-77 12 21 22 c44 47 -12 80 -78 47 -37 -17 -60 -56 -31 -52 65 8 45
-17 -24 -31 -34 -6 -79 -21 -100 -31 -37 -19 -50 -15 -27 8 7 7 9 19 6 27 -9
24 -53 20 -71 -6 -21 -29 -20 -33 6 -58 14 -13 19 -24 12 -28 -5 -4 -21 -23
-34 -42 -22 -31 -25 -45 -25 -130 0 -93 1 -97 35 -145 63 -88 168 -146 295
-163 l60 -9 -40 -9 c-22 -5 -113 -9 -202 -9 l-161 0 -39 31 c-36 29 -123 145
-123 165 0 5 9 9 20 9 33 0 39 47 10 90 -8 13 -13 13 -30 2 -20 -12 -21 -11
-18 50 3 57 5 63 26 66 15 2 27 16 38 40 14 34 14 38 -2 49 -16 12 -15 16 16
55 41 52 57 63 91 59 28 -2 45 12 50 44 3 12 25 30 59 47 65 33 85 35 51 7
-20 -16 -23 -24 -14 -37 14 -24 61 -27 84 -6 28 25 23 43 -13 59 -18 8 -28 15
-23 15 6 1 33 7 60 16 37 10 86 13 192 10 137 -4 144 -6 219 -41z m-446 -40
c-14 -16 -50 -21 -50 -6 0 11 18 19 44 20 15 1 16 -2 6 -14z m-1495 -24 c3 -5
1 -12 -5 -16 -5 -3 -10 1 -10 9 0 18 6 21 15 7z m1649 3 c23 -9 1 -34 -30 -34
-28 0 -33 26 -6 33 9 3 18 5 19 6 1 0 9 -2 17 -5z m-1964 -79 c0 -31 -3 -35
-25 -35 -30 0 -29 -1 -9 38 20 42 34 40 34 -3z m66 9 c19 -28 9 -48 -22 -42
-12 2 -19 12 -20 28 -1 48 17 54 42 14z m2169 3 c21 -16 13 -37 -14 -37 -22 0
-45 25 -36 40 9 14 28 13 50 -3z m-539 -23 c-3 -9 -6 -18 -6 -20 0 -2 -7 -4
-15 -4 -13 0 -14 4 -5 20 13 24 35 27 26 4z m357 -5 c129 -20 235 -85 314
-191 36 -50 38 -56 38 -128 -1 -178 -126 -324 -350 -411 -123 -48 -234 -60
-574 -64 -195 -2 -306 -7 -310 -13 -3 -6 -29 -18 -56 -27 -87 -29 -131 -60
-155 -111 -21 -42 -22 -51 -11 -97 34 -147 268 -301 471 -309 46 -2 50 -8 43
-71 l-6 -47 -303 0 c-186 0 -304 4 -304 10 0 5 -20 37 -44 72 -88 127 -139
250 -138 337 1 81 56 182 156 288 65 69 93 91 161 124 147 71 264 83 521 53
176 -20 432 -15 513 11 117 37 164 134 126 261 -12 42 -22 54 -67 84 -46 30
-63 35 -126 38 -63 4 -77 1 -107 -19 -87 -60 -62 -161 47 -194 67 -20 142 -19
195 1 24 9 45 15 48 13 11 -11 -16 -85 -40 -108 -24 -24 -32 -26 -114 -26 -81
0 -94 3 -165 38 -86 43 -135 87 -167 149 -18 36 -20 51 -14 121 7 76 10 82 48
124 49 53 84 73 157 89 71 16 124 17 213 3z m355 -22 c2 -12 -3 -17 -17 -17
-15 0 -21 6 -21 21 0 25 33 22 38 -4z m536 -3 c97 -25 202 -109 270 -216 40
-62 57 -207 31 -257 -26 -52 -110 -118 -166 -131 -67 -16 -192 -16 -248 -1
-65 18 -111 68 -111 120 0 35 4 43 30 56 16 9 55 15 90 15 56 0 120 -20 120
-38 0 -4 -22 -7 -49 -7 -38 0 -55 -5 -75 -24 -60 -56 -16 -97 116 -107 112 -9
142 6 224 111 59 74 62 160 8 216 -116 122 -365 145 -595 54 -13 -5 -19 4 -29
47 -7 29 -17 61 -22 70 -10 21 29 44 144 82 86 30 172 33 262 10z m-1509 -56
c-14 -29 -28 -68 -31 -85 -3 -18 -9 -33 -13 -33 -4 0 -39 11 -77 24 -87 30
-238 50 -318 41 -151 -16 -330 -118 -383 -220 -9 -16 -22 -35 -29 -42 -7 -8
-21 -38 -30 -68 l-18 -55 -23 22 c-20 18 -23 31 -23 91 0 67 36 249 65 327
l13 35 323 5 c178 3 379 6 446 8 l122 2 -24 -52z m-1205 30 c0 -6 -8 -30 -19
-52 -10 -23 -24 -56 -31 -74 -7 -18 -26 -42 -41 -53 -16 -11 -29 -27 -29 -36
0 -24 -31 -70 -56 -84 -33 -17 -41 -51 -40 -175 1 -105 3 -113 35 -178 20 -38
51 -81 73 -99 21 -17 38 -35 38 -39 0 -18 -132 -177 -167 -200 -88 -59 -189
-62 -273 -8 -57 37 -72 60 -90 142 -11 50 -11 60 2 75 21 25 29 64 16 80 -15
19 17 88 48 102 14 6 29 22 34 35 12 31 37 45 97 52 108 12 140 24 156 56 17
35 14 55 -16 90 -55 63 -153 88 -205 52 -31 -21 -25 -56 10 -68 23 -8 32 -6
52 13 32 31 66 21 66 -19 0 -39 -28 -44 -120 -20 -90 24 -184 26 -224 5 -15
-8 -32 -15 -37 -15 -5 0 -9 94 -9 210 l0 210 188 3 c504 7 542 7 542 -5z m108
-29 c-2 -6 -8 -10 -13 -10 -5 0 -11 4 -13 10 -2 6 4 11 13 11 9 0 15 -5 13
-11z m1122 -34 c0 -8 -4 -15 -10 -15 -5 0 -7 7 -4 15 4 8 8 15 10 15 2 0 4 -7
4 -15z m-295 -51 c62 -6 211 -49 219 -63 3 -4 10 -36 15 -70 6 -34 23 -89 40
-122 16 -32 26 -59 21 -59 -4 0 -41 16 -82 35 -130 62 -273 80 -379 49 -156
-47 -218 -120 -219 -260 0 -39 5 -75 11 -81 9 -9 1 -24 -30 -59 -44 -50 -111
-174 -111 -205 0 -33 -17 -20 -38 29 -85 199 -88 422 -9 561 92 161 289 270
462 255 22 -2 67 -6 100 -10z m1285 -20 c0 -17 -22 -14 -28 4 -2 7 3 12 12 12
9 0 16 -7 16 -16z m470 -23 c0 -6 -4 -12 -9 -15 -5 -3 -7 -15 -4 -26 8 -30
-31 -26 -45 5 -6 14 -16 25 -22 25 -5 0 -10 5 -10 10 0 6 20 10 45 10 25 0 45
-4 45 -9z m-886 -22 c55 -25 84 -56 92 -97 6 -31 4 -33 -42 -53 -40 -18 -59
-20 -117 -15 -82 7 -121 26 -142 66 -46 88 92 154 209 99z m736 15 c0 -3 -7
-12 -15 -20 -8 -9 -15 -25 -15 -37 -1 -28 -70 -71 -128 -81 l-42 -6 0 38 c0
25 6 45 18 54 33 30 182 72 182 52z m48 -30 c-4 -24 -35 -41 -48 -28 -8 8 -7
16 5 28 21 21 47 21 43 0z m186 7 c3 -5 -1 -14 -9 -21 -12 -10 -21 -10 -40 -2
-14 7 -25 16 -25 22 0 12 67 14 74 1z m110 -23 c51 -33 86 -80 86 -113 0 -18
-2 -18 -19 5 -17 21 -23 23 -48 15 -22 -8 -29 -17 -31 -43 -4 -43 14 -65 50
-60 35 6 35 1 -1 -42 -28 -34 -29 -35 -49 -17 -20 18 -22 18 -51 1 -35 -21
-44 -64 -13 -64 14 0 15 -2 2 -10 -20 -13 -77 -13 -85 1 -4 5 16 32 44 59 28
27 53 61 56 77 3 15 11 44 17 64 12 43 5 59 -25 59 -28 1 -61 25 -52 40 4 6
16 8 27 4 18 -5 20 -3 16 25 -6 41 14 41 76 -1z m-2834 3 c0 -12 -20 -25 -27
-18 -7 7 6 27 18 27 5 0 9 -4 9 -9z m-120 -20 c0 -12 -20 -25 -27 -18 -7 7 6
27 18 27 5 0 9 -4 9 -9z m2360 -6 c0 -8 -4 -15 -10 -15 -5 0 -10 7 -10 15 0 8
5 15 10 15 6 0 10 -7 10 -15z m-1052 -39 c3 -12 -1 -17 -10 -14 -7 3 -15 13
-16 22 -3 12 1 17 10 14 7 -3 15 -13 16 -22z m-1638 -52 c0 -14 -43 -42 -56
-37 -22 8 -17 20 14 31 33 13 42 14 42 6z m3330 -29 c0 -36 -5 -41 -29 -26
-18 11 -6 61 14 61 10 0 15 -11 15 -35z m-686 16 c3 -5 -1 -14 -9 -21 -13 -10
-15 -9 -15 9 0 21 14 28 24 12z m-2504 -88 c0 -37 -39 -54 -151 -64 -124 -10
-180 -28 -253 -79 -32 -22 -59 -40 -61 -40 -3 0 -5 33 -5 74 0 72 1 76 30 96
47 33 122 37 224 10 47 -12 97 -19 110 -16 41 10 58 34 50 70 l-6 31 31 -29
c17 -17 31 -40 31 -53z m1301 51 c59 -17 73 -29 44 -40 -8 -4 -15 -12 -15 -19
0 -15 27 -45 40 -45 16 0 39 31 34 45 -8 20 -1 19 49 -6 100 -51 118 -86 35
-67 -51 11 -227 14 -293 4 -51 -7 -51 -7 -50 20 0 20 -6 30 -20 33 -14 4 -20
15 -20 36 0 27 -3 30 -34 30 -61 0 -69 -63 -10 -75 20 -4 24 -11 24 -40 0 -29
-5 -36 -28 -44 -24 -9 -30 -7 -38 7 -11 19 -54 23 -65 6 -4 -8 -9 -8 -17 0
-29 29 -37 -5 -11 -44 15 -24 15 -26 -16 -52 -18 -14 -38 -33 -46 -40 -8 -8
-18 -11 -24 -8 -15 9 -12 130 3 168 15 34 57 78 45 46 -13 -34 47 -54 72 -24
19 23 8 49 -25 55 l-30 6 35 19 c77 41 141 55 224 50 43 -2 105 -12 137 -21z
m-1091 7 c0 -12 -20 -25 -27 -18 -7 7 6 27 18 27 5 0 9 -4 9 -9z m870 -45 c0
-21 -21 -31 -30 -15 -5 7 -6 17 -4 21 9 14 34 9 34 -6z m300 -25 c0 -6 -4 -13
-10 -16 -5 -3 -10 1 -10 9 0 9 5 16 10 16 6 0 10 -4 10 -9z m-436 -20 c3 -5
-1 -11 -9 -15 -9 -3 -15 0 -15 9 0 16 16 20 24 6z m2024 3 c34 -10 26 -24 -13
-24 -19 0 -35 -4 -35 -9 0 -13 -27 -21 -45 -15 -13 5 -13 9 -3 21 22 27 57 37
96 27z m-478 -35 c-12 -22 -30 -25 -30 -6 0 17 21 38 32 31 4 -3 3 -14 -2 -25z
m-1374 -6 c-10 -10 -19 5 -10 18 6 11 8 11 12 0 2 -7 1 -15 -2 -18z m1990 2
c-26 -19 -42 -19 -26 0 7 8 20 15 29 15 13 -1 13 -3 -3 -15z m-2896 -25 c0
-11 -4 -20 -10 -20 -5 0 -10 9 -10 20 0 11 5 20 10 20 6 0 10 -9 10 -20z
m-100 -14 c0 -8 -7 -19 -15 -26 -12 -10 -16 -9 -21 4 -7 18 13 49 27 40 5 -3
9 -11 9 -18z m-365 -6 c-3 -5 -13 -10 -20 -10 -8 0 -31 -35 -52 -77 -32 -66
-39 -90 -42 -155 -3 -65 -6 -78 -20 -78 -23 0 -41 -20 -41 -45 0 -30 19 -45
55 -45 23 0 44 -11 75 -40 60 -56 115 -74 194 -67 111 10 170 49 252 163 94
131 182 188 294 189 111 0 112 0 144 -112 15 -54 43 -126 62 -161 19 -34 34
-71 34 -81 0 -10 11 -49 25 -85 14 -37 25 -69 25 -71 0 -3 -13 -5 -29 -5 -34
0 -49 -27 -31 -59 24 -46 73 -44 82 4 2 15 12 6 43 -40 21 -33 48 -69 58 -80
18 -20 18 -20 -43 -23 -54 -3 -65 0 -92 23 -57 48 -163 95 -215 95 -93 0 -301
-75 -316 -115 -5 -12 -29 -15 -146 -15 -77 0 -142 4 -146 9 -3 5 -29 17 -58
27 -115 37 -200 94 -141 94 8 0 19 12 24 26 13 32 -3 69 -42 97 -24 18 -31 19
-52 7 -14 -7 -28 -26 -31 -41 -8 -36 -18 -36 -44 -3 -13 17 -21 41 -21 66 0
38 2 40 25 34 19 -5 28 -1 41 19 24 37 6 75 -36 75 l-30 0 0 110 0 110 24 -6
c18 -4 28 0 40 17 21 31 20 46 -5 60 -15 8 -24 8 -32 0 -20 -20 -27 -12 -27
31 0 35 6 47 39 78 21 20 63 49 92 64 53 26 95 34 84 16z m3192 4 c-3 -3 -12
-4 -19 -1 -8 3 -5 6 6 6 11 1 17 -2 13 -5z m-1947 -14 c0 -5 -7 -10 -15 -10
-8 0 -15 5 -15 10 0 6 7 10 15 10 8 0 15 -4 15 -10z m1372 -32 c-6 -6 -15 -8
-19 -4 -4 4 -1 11 7 16 19 12 27 3 12 -12z m-2102 -64 c0 -16 -16 -19 -25 -4
-8 13 4 32 16 25 5 -4 9 -13 9 -21z m2050 -43 c0 -15 -42 -41 -53 -34 -6 4 0
14 12 25 25 20 41 23 41 9z m-2123 -16 c3 -9 2 -19 -1 -23 -8 -8 -38 10 -44
26 -6 18 38 14 45 -3z m1957 -24 c9 -14 -34 -61 -55 -61 -11 0 -22 7 -26 17
-12 30 64 72 81 44z m-2564 -35 c0 -8 -4 -17 -9 -21 -12 -7 -24 12 -16 25 9
15 25 12 25 -4z m2824 -15 c90 -42 160 -62 251 -70 l80 -7 -35 -15 c-56 -25
-122 -29 -214 -14 -90 14 -212 50 -221 65 -4 7 62 70 74 70 2 0 32 -13 65 -29z
m-1076 -29 c2 -7 -7 -12 -22 -12 -27 0 -35 15 -13 23 17 7 30 3 35 -11z m908
-49 c-15 -8 -26 -22 -26 -34 0 -15 -5 -19 -16 -15 -9 3 -22 6 -30 6 -26 0 -14
18 28 43 23 14 49 22 56 19 10 -4 7 -9 -12 -19z m-726 -1 c0 -14 -11 -21 -26
-15 -21 8 -17 23 6 23 11 0 20 -4 20 -8z m764 -18 c24 -9 19 -24 -8 -24 -26 0
-40 12 -29 24 8 8 17 8 37 0z m84 -5 c30 -10 30 -11 11 -30 -25 -25 -64 -26
-51 -1 5 9 7 23 5 30 -6 15 -4 15 35 1z m-314 -8 c3 -5 -14 -16 -39 -24 -38
-13 -45 -14 -45 -2 0 27 71 48 84 26z m-584 -13 l40 -13 0 -112 c0 -102 -8
-140 -25 -113 -8 13 -65 13 -65 0 0 -15 -66 -2 -112 22 -25 12 -43 31 -52 53
-8 19 -19 35 -25 35 -14 0 -23 34 -16 62 6 22 48 55 90 69 34 12 123 10 165
-3z m1040 -18 c0 -11 -22 -18 -37 -12 -24 8 -14 29 12 24 14 -2 25 -8 25 -12z
m-735 0 c4 -6 -7 -10 -24 -10 -17 0 -31 5 -31 10 0 6 11 10 24 10 14 0 28 -4
31 -10z m647 -12 c-9 -9 -15 -9 -24 0 -9 9 -7 12 12 12 19 0 21 -3 12 -12z
m-2832 -133 c0 -26 -14 -33 -25 -15 -9 14 1 40 15 40 5 0 10 -11 10 -25z
m1717 -130 c3 -9 3 -19 -1 -22 -7 -7 -36 16 -36 28 0 15 30 10 37 -6z m-1609
-22 c7 -7 12 -23 10 -35 -3 -20 -9 -23 -43 -23 -36 0 -40 3 -43 28 -2 16 2 34
8 42 12 15 48 9 68 -12z m55 -162 l102 -50 -152 -1 c-116 0 -153 3 -153 13 0
6 -2 47 -3 90 -1 43 -1 80 2 82 2 3 26 -15 52 -39 27 -24 95 -67 152 -95z
m987 107 c0 -4 -5 -10 -12 -14 -12 -8 -40 24 -32 37 5 9 44 -11 44 -23z m740
22 c0 -5 -7 -10 -15 -10 -8 0 -15 5 -15 10 0 6 7 10 15 10 8 0 15 -4 15 -10z
m-887 -92 c29 -12 70 -33 92 -47 l40 -26 -245 -6 c-135 -4 -247 -5 -249 -3
-15 13 130 79 204 94 68 13 104 11 158 -12z"/>
<path d="M3429 3304 c-21 -25 1 -49 46 -49 41 0 63 20 52 49 -9 22 -80 22 -98
0z m79 -16 c-3 -7 -15 -13 -28 -13 -13 0 -25 6 -27 13 -3 8 6 12 27 12 21 0
30 -4 28 -12z"/>
<path d="M2935 3100 c-38 -41 -13 -115 34 -103 20 5 41 42 41 72 0 19 -29 51
-47 51 -5 0 -18 -9 -28 -20z m40 -46 c0 -19 -6 -30 -16 -32 -21 -4 -29 17 -18
46 12 32 34 22 34 -14z"/>
<path d="M2896 2957 c-13 -9 -17 -23 -14 -52 3 -35 6 -40 27 -40 30 0 41 28
29 73 -9 35 -16 38 -42 19z m24 -53 c0 -13 -4 -24 -10 -24 -5 0 -10 14 -10 31
0 17 4 28 10 24 6 -3 10 -17 10 -31z"/>
<path d="M2927 2783 c-19 -19 -3 -79 25 -94 39 -21 60 23 36 76 -11 24 -45 34
-61 18z m43 -32 c5 -11 10 -24 10 -30 0 -17 -27 -13 -34 5 -16 41 4 62 24 25z"/>
<path d="M3153 2310 c-58 -35 -33 -100 33 -84 34 9 63 66 44 89 -17 20 -38 19
-77 -5z m50 -26 c12 -12 -6 -34 -28 -34 -26 0 -40 14 -30 30 7 11 48 14 58 4z"/>
<path d="M2973 2310 c-27 -11 -40 -54 -23 -75 18 -21 37 -19 64 8 13 13 28 21
34 19 21 -7 13 26 -10 42 -25 18 -33 19 -65 6z m35 -37 c-4 -23 -48 -31 -48
-10 0 9 6 18 13 20 25 11 38 7 35 -10z"/>
<path d="M2408 2198 c-23 -28 -23 -43 2 -68 24 -24 53 -26 74 -4 19 18 21 65
4 82 -19 19 -61 14 -80 -10z m72 -27 c0 -24 -25 -45 -45 -37 -20 7 -19 33 3
45 26 16 42 13 42 -8z"/>
<path d="M2560 2706 c-6 -8 -10 -25 -8 -38 2 -18 10 -24 35 -26 27 -3 35 1 44
22 9 20 9 29 -1 41 -16 19 -54 19 -70 1z m50 -26 c0 -13 -7 -20 -20 -20 -19 0
-27 20 -13 33 13 14 33 6 33 -13z"/>
<path d="M966 2495 c-21 -22 -17 -50 8 -50 29 0 44 31 25 51 -15 14 -18 14
-33 -1z"/>
<path d="M1828 2264 c-17 -36 0 -59 43 -59 28 0 35 5 44 28 8 24 6 31 -10 43
-30 22 -64 17 -77 -12z m59 -5 c16 -16 5 -39 -17 -39 -23 0 -34 16 -26 35 6
18 28 19 43 4z"/>
<path d="M1626 2244 c-22 -22 -30 -59 -17 -83 28 -51 111 -29 111 29 0 55 -59
89 -94 54z m58 -30 c21 -21 20 -41 -3 -54 -36 -19 -63 8 -53 53 5 21 35 22 56
1z"/>
<path d="M1863 2138 c-28 -36 -24 -71 9 -89 25 -14 68 13 68 42 0 49 -51 80
-77 47z m47 -27 c16 -31 12 -41 -15 -41 -20 0 -25 5 -25 23 0 40 22 50 40 18z"/>
<path d="M1446 2064 c-20 -19 -21 -58 -1 -74 24 -20 69 1 73 34 6 49 -38 74
-72 40z m49 -34 c0 -8 -10 -16 -22 -18 -22 -3 -32 16 -16 32 12 11 38 2 38
-14z"/>
<path d="M1619 2053 c-26 -70 77 -127 111 -62 20 36 -23 88 -73 89 -21 0 -30
-6 -38 -27z m73 -10 c29 -26 23 -53 -12 -53 -23 0 -33 6 -39 23 -17 44 14 63
51 30z"/>
<path d="M1057 2022 c-33 -36 -13 -92 31 -92 16 0 33 5 40 12 18 18 14 63 -6
81 -24 22 -45 21 -65 -1z m53 -17 c19 -23 8 -50 -20 -50 -16 0 -26 6 -28 18
-4 18 14 47 28 47 4 0 13 -7 20 -15z"/>
<path d="M1211 1954 c-26 -57 50 -104 79 -49 11 20 10 28 -4 50 -22 34 -59 33
-75 -1z m54 -10 c14 -15 15 -19 2 -32 -19 -19 -37 -7 -37 24 0 28 12 31 35 8z"/>
<path d="M1846 1958 c-9 -12 -16 -29 -16 -38 0 -30 30 -60 60 -60 41 0 63 26
56 64 -11 56 -71 76 -100 34z m62 -10 c7 -7 12 -25 12 -40 0 -22 -5 -28 -23
-28 -30 0 -51 34 -37 60 12 23 30 26 48 8z"/>
<path d="M1397 1932 c-23 -25 -22 -65 2 -86 26 -24 62 -17 80 16 14 25 14 29
-5 55 -26 34 -55 40 -77 15z m51 -14 c17 -17 15 -58 -3 -64 -19 -8 -45 13 -45
35 0 17 18 41 30 41 3 0 11 -5 18 -12z"/>
<path d="M1636 1901 c-26 -29 -17 -73 17 -85 37 -13 61 2 65 42 2 22 -3 34
-20 46 -29 21 -41 20 -62 -3z m60 -33 c6 -20 -11 -41 -30 -35 -21 7 -30 35
-17 51 15 18 38 11 47 -16z"/>
<path d="M1175 1816 c-22 -34 -10 -71 27 -87 39 -16 62 -3 66 39 6 60 -62 96
-93 48z m63 -21 c17 -37 15 -45 -13 -45 -31 0 -52 34 -34 56 17 21 34 17 47
-11z"/>
<path d="M1364 1785 c-36 -55 25 -125 70 -79 19 18 21 75 4 92 -20 20 -56 14
-74 -13z m61 -29 c7 -20 6 -29 -4 -36 -23 -13 -41 0 -41 29 0 50 28 54 45 7z"/>
<path d="M2930 1774 c-33 -39 -7 -100 55 -131 16 -9 33 -20 36 -26 8 -12 -1
-47 -11 -47 -5 0 -15 -3 -23 -6 -8 -3 -24 4 -35 16 -21 22 -42 20 -42 -4 0
-16 43 -36 78 -36 43 0 72 26 72 64 0 35 -16 54 -64 77 -35 17 -51 41 -43 63
8 20 56 21 63 1 4 -8 12 -15 20 -15 21 0 17 38 -5 50 -29 15 -87 12 -101 -6z"/>
<path d="M3105 1665 l0 -125 25 0 25 0 -3 106 c-3 68 0 110 7 117 19 19 12 27
-21 27 l-33 0 0 -125z"/>
<path d="M3190 1781 c0 -6 4 -13 10 -16 5 -3 22 -26 36 -51 l26 -45 -36 -58
c-20 -33 -36 -62 -36 -65 0 -3 14 -6 31 -6 26 0 29 3 24 20 -6 18 19 70 35 70
13 0 31 -52 25 -71 -5 -16 -1 -19 24 -19 34 0 49 15 28 27 -17 9 -57 86 -57
107 0 8 16 35 35 60 19 26 35 48 35 51 0 3 -13 5 -30 5 -25 0 -30 -4 -30 -23
0 -12 -7 -33 -16 -46 l-17 -24 -13 24 c-7 13 -13 34 -14 47 0 18 -6 22 -30 22
-16 0 -30 -4 -30 -9z"/>
<path d="M3390 1770 c0 -22 10 -26 27 -9 24 24 33 -3 33 -96 0 -52 -4 -97 -10
-100 -21 -13 -9 -25 26 -25 31 0 35 3 28 18 -5 9 -10 57 -12 106 -4 91 6 122
30 98 18 -18 38 -14 38 8 0 18 -7 20 -80 20 -73 0 -80 -2 -80 -20z"/>
<path d="M3570 1781 c0 -6 5 -13 10 -16 6 -3 10 -48 10 -100 0 -52 -4 -97 -10
-100 -25 -16 -5 -25 55 -25 57 0 65 2 65 19 0 16 -5 18 -40 14 l-40 -6 0 47
c0 46 0 46 35 46 24 0 35 5 35 15 0 11 -11 15 -36 15 -35 0 -35 1 -32 37 3 43
33 58 54 28 12 -15 13 -15 23 3 6 11 7 22 4 26 -10 10 -133 7 -133 -3z"/>
<path d="M3777 1778 c-53 -41 -48 -210 8 -232 52 -20 105 8 105 56 0 27 -19
22 -30 -7 -12 -31 -32 -40 -59 -25 -19 9 -21 20 -21 88 0 92 13 118 53 108 15
-3 27 -13 27 -21 0 -8 7 -15 15 -15 21 0 19 23 -3 43 -22 20 -71 22 -95 5z"/>
<path d="M3925 1665 l0 -125 28 0 c28 0 34 9 16 27 -5 5 -9 30 -7 53 3 46 18
56 67 44 22 -5 23 -8 19 -64 l-4 -60 28 0 c28 0 37 13 18 25 -6 3 -10 48 -10
100 0 52 4 97 10 100 19 12 10 25 -19 25 -28 0 -28 0 -23 -51 l5 -50 -44 3
c-40 3 -44 6 -47 32 -2 16 1 33 7 39 18 18 13 27 -16 27 l-28 0 0 -125z"/>
<path d="M4145 1665 l0 -125 68 0 c65 0 67 1 67 25 0 25 -14 33 -25 15 -3 -5
-20 -10 -37 -10 l-30 0 4 110 3 110 -25 0 -25 0 0 -125z"/>
<path d="M4310 1781 c0 -6 5 -13 10 -16 6 -3 10 -48 10 -101 0 -56 -4 -94 -10
-94 -5 0 -10 -7 -10 -15 0 -12 14 -15 65 -15 57 0 65 2 65 19 0 16 -5 18 -40
14 l-40 -6 0 47 c0 46 0 46 35 46 24 0 35 5 35 15 0 10 -11 15 -35 15 -33 0
-35 2 -35 34 0 40 26 55 59 34 23 -14 36 -6 28 17 -5 11 -22 15 -72 15 -36 0
-65 -4 -65 -9z"/>
<path d="M4489 1774 c-7 -9 -13 -31 -13 -49 0 -36 25 -64 77 -86 20 -8 27 -18
27 -39 0 -42 -47 -50 -76 -12 -13 17 -34 8 -34 -14 0 -30 78 -44 125 -22 20 9
25 18 25 48 0 36 -23 70 -47 70 -22 0 -63 42 -63 66 0 20 5 24 30 24 18 0 33
-6 36 -15 4 -8 12 -15 20 -15 21 0 17 38 -5 50 -30 15 -87 12 -102 -6z"/>
</g>
</svg>
